<?xml version="1.0" encoding="utf-8"?>
<!-- Generator: Adobe Illustrator 21.0.0, SVG Export Plug-In . SVG Version: 6.00 Build 0)  -->
<svg version="1.1" id="Layer_1" xmlns="http://www.w3.org/2000/svg" xmlns:xlink="http://www.w3.org/1999/xlink" x="0px" y="0px"
	 viewBox="0 0 353 353" style="enable-background:new 0 0 353 353;" xml:space="preserve">
<style type="text/css">
	.st0{fill:#1C264F;}
	.st1{fill:#235D99;}
</style>
<path class="st0" d="M289.8,307.6c5.8,0,10.5-4.7,10.5-10.5V178.4c0-71.3-38.9-129.1-129.1-129.1H141c-5.8,0-10.5,4.7-10.5,10.5
	l0,44c0,5.8,4.7,10.5,10.5,10.5c11,0,23.1,0,30.1,0c51.9,0.2,64.1,28.7,64.1,64.1c0,4,0,88.6-0.1,118.6c0,5.8,4.7,10.5,10.5,10.5
	H289.8z"/>
<path class="st1" d="M93.3,114.5h-40c-6.9,0-12.6-5.6-12.6-12.6v-40c0-6.9,5.6-12.6,12.6-12.6h40c6.9,0,12.6,5.6,12.6,12.6v40
	C105.9,108.8,100.3,114.5,93.3,114.5z"/>
<path class="st0" d="M51.2,138.8c-5.8,0-10.5,4.7-10.5,10.5v29.2c0,71.3,38.9,129.1,129.1,129.1H200c5.8,0,10.5-4.7,10.5-10.5v-44
	c0-5.8-4.7-10.5-10.5-10.5c-11,0-23.1,0-30.1,0c-51.9-0.2-64.1-28.7-64.1-64.1c0-4,0-7,0.1-29.1c0-5.8-4.7-10.5-10.5-10.5H51.2z"/>
</svg>
