<svg width="40" height="40" viewBox="0 0 40 40" fill="none" xmlns="http://www.w3.org/2000/svg">
<circle cx="20" cy="20" r="20" fill="white"/>
<path fill-rule="evenodd" clip-rule="evenodd" d="M11.6668 25.0002C10.5557 25.0002 10.5557 23.3335 11.6668 23.3335C12.5873 23.3335 13.3335 22.5873 13.3335 21.6668V17.5002C13.3335 13.8183 16.3183 10.8335 20.0002 10.8335C23.6821 10.8335 26.6668 13.8183 26.6668 17.5002V21.6668C26.6668 22.5873 27.413 23.3335 28.3335 23.3335C29.4446 23.3335 29.4446 25.0002 28.3335 25.0002H11.6668ZM25.0002 21.6668V17.5002C25.0002 14.7387 22.7616 12.5002 20.0002 12.5002C17.2387 12.5002 15.0002 14.7387 15.0002 17.5002V21.6668C15.0002 22.274 14.8378 22.8432 14.5542 23.3335H25.4461C25.1625 22.8432 25.0002 22.274 25.0002 21.6668ZM20.0002 29.1639C20.8915 29.1639 21.7154 28.6893 22.1627 27.9183C22.4849 27.3628 22.0841 26.6668 21.4418 26.6668H18.5585C17.9162 26.6668 17.5154 27.3628 17.8377 27.9183C18.2849 28.6893 19.1088 29.1639 20.0002 29.1639Z" fill="#235D99"/>
<mask id="mask0_1157_581" style="mask-type:luminance" maskUnits="userSpaceOnUse" x="10" y="10" width="20" height="20">
<path fill-rule="evenodd" clip-rule="evenodd" d="M11.6668 25.0002C10.5557 25.0002 10.5557 23.3335 11.6668 23.3335C12.5873 23.3335 13.3335 22.5873 13.3335 21.6668V17.5002C13.3335 13.8183 16.3183 10.8335 20.0002 10.8335C23.6821 10.8335 26.6668 13.8183 26.6668 17.5002V21.6668C26.6668 22.5873 27.413 23.3335 28.3335 23.3335C29.4446 23.3335 29.4446 25.0002 28.3335 25.0002H11.6668ZM25.0002 21.6668V17.5002C25.0002 14.7387 22.7616 12.5002 20.0002 12.5002C17.2387 12.5002 15.0002 14.7387 15.0002 17.5002V21.6668C15.0002 22.274 14.8378 22.8432 14.5542 23.3335H25.4461C25.1625 22.8432 25.0002 22.274 25.0002 21.6668ZM20.0002 29.1639C20.8915 29.1639 21.7154 28.6893 22.1627 27.9183C22.4849 27.3628 22.0841 26.6668 21.4418 26.6668H18.5585C17.9162 26.6668 17.5154 27.3628 17.8377 27.9183C18.2849 28.6893 19.1088 29.1639 20.0002 29.1639Z" fill="white"/>
</mask>
<g mask="url(#mask0_1157_581)">
<rect x="10" y="10" width="20" height="20" fill="#235D99"/>
</g>
<circle cx="26" cy="14" r="4" fill="#FF7400"/>
</svg>
