<svg width="71" height="71" viewBox="0 0 71 71" fill="none" xmlns="http://www.w3.org/2000/svg">
<path d="M58.2883 61.8687C59.4549 61.8687 60.4002 60.9234 60.4002 59.7568V35.8823C60.4002 21.5415 52.5761 9.91602 34.4339 9.91602H28.3597C27.1931 9.91602 26.2478 10.8613 26.2478 12.0279V20.8778C26.2478 22.0443 27.1931 22.9897 28.3597 22.9897C30.5722 22.9897 33.0059 22.9897 34.4138 22.9897C44.8526 23.0299 47.3064 28.7622 47.3064 35.8823C47.3064 36.6868 47.3064 53.7027 47.2863 59.7367C47.2863 60.9033 48.2317 61.8486 49.3982 61.8486H58.2883V61.8687Z" fill="#1C264F"/>
<path d="M18.7656 23.0299H10.7203C9.33249 23.0299 8.18604 21.9036 8.18604 20.4956V12.4503C8.18604 11.0625 9.31238 9.91602 10.7203 9.91602H18.7656C20.1535 9.91602 21.2999 11.0424 21.2999 12.4503V20.4956C21.2999 21.8834 20.1736 23.0299 18.7656 23.0299Z" fill="#235D99"/>
<path d="M10.2979 27.9175C9.13136 27.9175 8.18604 28.8628 8.18604 30.0294V35.9025C8.18604 50.2433 16.0101 61.8688 34.1523 61.8688H40.2265C41.3931 61.8688 42.3384 60.9234 42.3384 59.7569V50.907C42.3384 49.7404 41.3931 48.7951 40.2265 48.7951C38.0141 48.7951 35.5804 48.7951 34.1724 48.7951C23.7336 48.7549 21.2798 43.0226 21.2798 35.9025C21.2798 35.0979 21.2798 34.4945 21.2999 30.0495C21.2999 28.8829 20.3546 27.9376 19.188 27.9376H10.2979V27.9175Z" fill="#1C264F"/>
</svg>
